<?xml version="1.0" encoding="UTF-8" standalone="no"?>
<svg
   width="1920"
   height="1080"
   viewBox="0 0 1920 1080"
   fill="none"
   version="1.1"
   id="svg185"
   sodipodi:docname="bg_dots.svg"
   inkscape:version="1.3.2 (091e20ef0f, 2023-11-25, custom)"
   xmlns:inkscape="http://www.inkscape.org/namespaces/inkscape"
   xmlns:sodipodi="http://sodipodi.sourceforge.net/DTD/sodipodi-0.dtd"
   xmlns="http://www.w3.org/2000/svg"
   xmlns:svg="http://www.w3.org/2000/svg">
  <defs
     id="defs185" />
  <sodipodi:namedview
     id="namedview185"
     pagecolor="#ffffff"
     bordercolor="#000000"
     borderopacity="0.25"
     inkscape:showpageshadow="2"
     inkscape:pageopacity="0.0"
     inkscape:pagecheckerboard="0"
     inkscape:deskcolor="#d1d1d1"
     inkscape:zoom="1.0380208"
     inkscape:cx="827.05469"
     inkscape:cy="239.87958"
     inkscape:window-width="2560"
     inkscape:window-height="1371"
     inkscape:window-x="0"
     inkscape:window-y="0"
     inkscape:window-maximized="1"
     inkscape:current-layer="svg185" />
  <rect
     x="49"
     y="103.949"
     width="5.94928"
     height="5.94928"
     rx="2.97464"
     fill="black"
     id="rect1" />
  <rect
     x="1868.17"
     y="103.949"
     width="5.94928"
     height="5.94928"
     rx="2.97464"
     fill="black"
     id="rect2" />
  <rect
     x="49"
     y="39"
     width="5.94928"
     height="5.94928"
     rx="2.97464"
     fill="black"
     id="rect3" />
  <rect
     x="113.949"
     y="39"
     width="5.94928"
     height="5.94928"
     rx="2.97464"
     fill="black"
     id="rect4" />
  <rect
     x="178.898"
     y="39"
     width="5.94928"
     height="5.94928"
     rx="2.97464"
     fill="black"
     id="rect5" />
  <rect
     x="243.848"
     y="39"
     width="5.94928"
     height="5.94928"
     rx="2.97464"
     fill="black"
     id="rect6" />
  <rect
     x="308.797"
     y="39"
     width="5.94928"
     height="5.94928"
     rx="2.97464"
     fill="black"
     id="rect7" />
  <rect
     x="373.746"
     y="39"
     width="5.94928"
     height="5.94928"
     rx="2.97464"
     fill="black"
     id="rect8" />
  <rect
     x="438.695"
     y="39"
     width="5.94928"
     height="5.94928"
     rx="2.97464"
     fill="black"
     id="rect9" />
  <rect
     x="503.645"
     y="39"
     width="5.94928"
     height="5.94928"
     rx="2.97464"
     fill="black"
     id="rect10" />
  <rect
     x="568.594"
     y="39"
     width="5.94928"
     height="5.94928"
     rx="2.97464"
     fill="black"
     id="rect11" />
  <rect
     x="633.543"
     y="39"
     width="5.94928"
     height="5.94928"
     rx="2.97464"
     fill="black"
     id="rect12" />
  <rect
     x="698.492"
     y="39"
     width="5.94928"
     height="5.94928"
     rx="2.97464"
     fill="black"
     id="rect13" />
  <rect
     x="763.441"
     y="39"
     width="5.94928"
     height="5.94928"
     rx="2.97464"
     fill="black"
     id="rect14" />
  <rect
     x="828.391"
     y="39"
     width="5.94928"
     height="5.94928"
     rx="2.97464"
     fill="black"
     id="rect15" />
  <rect
     x="893.34"
     y="39"
     width="5.94928"
     height="5.94928"
     rx="2.97464"
     fill="black"
     id="rect16" />
  <rect
     x="958.289"
     y="39"
     width="5.94928"
     height="5.94928"
     rx="2.97464"
     fill="black"
     id="rect17" />
  <rect
     x="1023.24"
     y="39"
     width="5.94928"
     height="5.94928"
     rx="2.97464"
     fill="black"
     id="rect18" />
  <rect
     x="1088.19"
     y="39"
     width="5.94928"
     height="5.94928"
     rx="2.97464"
     fill="black"
     id="rect19" />
  <rect
     x="1153.14"
     y="39"
     width="5.94928"
     height="5.94928"
     rx="2.97464"
     fill="black"
     id="rect20" />
  <rect
     x="1218.09"
     y="39"
     width="5.94928"
     height="5.94928"
     rx="2.97464"
     fill="black"
     id="rect21" />
  <rect
     x="1283.04"
     y="39"
     width="5.94928"
     height="5.94928"
     rx="2.97464"
     fill="black"
     id="rect22" />
  <rect
     x="1347.98"
     y="39"
     width="5.94928"
     height="5.94928"
     rx="2.97464"
     fill="black"
     id="rect23" />
  <rect
     x="1412.93"
     y="39"
     width="5.94928"
     height="5.94928"
     rx="2.97464"
     fill="black"
     id="rect24" />
  <rect
     x="1477.88"
     y="39"
     width="5.94928"
     height="5.94928"
     rx="2.97464"
     fill="black"
     id="rect25" />
  <rect
     x="1607.78"
     y="39"
     width="5.94928"
     height="5.94928"
     rx="2.97464"
     fill="black"
     id="rect26" />
  <rect
     x="1802.95"
     y="39"
     width="5.94928"
     height="5.94928"
     rx="2.97464"
     fill="black"
     id="rect27" />
  <rect
     x="1542.83"
     y="39"
     width="5.94928"
     height="5.94928"
     rx="2.97464"
     fill="black"
     id="rect28" />
  <rect
     x="1738"
     y="39"
     width="5.94928"
     height="5.94928"
     rx="2.97464"
     fill="black"
     id="rect29" />
  <rect
     x="1673"
     y="39"
     width="5.94928"
     height="5.94928"
     rx="2.97464"
     fill="black"
     id="rect30" />
  <rect
     x="1868.17"
     y="39"
     width="5.94928"
     height="5.94928"
     rx="2.97464"
     fill="black"
     id="rect31" />
  <rect
     x="49"
     y="168.898"
     width="5.94928"
     height="5.94928"
     rx="2.97464"
     fill="black"
     id="rect32" />
  <rect
     x="49"
     y="429"
     width="5.94928"
     height="5.94928"
     rx="2.97464"
     fill="black"
     id="rect33" />
  <rect
     x="49"
     y="819"
     width="5.94928"
     height="5.94928"
     rx="2.97464"
     fill="black"
     id="rect34" />
  <rect
     x="113.949"
     y="168.898"
     width="5.94928"
     height="5.94928"
     rx="2.97464"
     fill="black"
     id="rect35" />
  <rect
     x="113.949"
     y="429"
     width="5.94928"
     height="5.94928"
     rx="2.97464"
     fill="black"
     id="rect36" />
  <rect
     x="113.949"
     y="819"
     width="5.94928"
     height="5.94928"
     rx="2.97464"
     fill="black"
     id="rect37" />
  <rect
     x="178.898"
     y="168.898"
     width="5.94928"
     height="5.94928"
     rx="2.97464"
     fill="black"
     id="rect38" />
  <rect
     x="178.898"
     y="429"
     width="5.94928"
     height="5.94928"
     rx="2.97464"
     fill="black"
     id="rect39" />
  <rect
     x="178.898"
     y="819"
     width="5.94928"
     height="5.94928"
     rx="2.97464"
     fill="black"
     id="rect40" />
  <rect
     x="243.848"
     y="168.898"
     width="5.94928"
     height="5.94928"
     rx="2.97464"
     fill="black"
     id="rect41" />
  <rect
     x="243.848"
     y="429"
     width="5.94928"
     height="5.94928"
     rx="2.97464"
     fill="black"
     id="rect42" />
  <rect
     x="243.848"
     y="819"
     width="5.94928"
     height="5.94928"
     rx="2.97464"
     fill="black"
     id="rect43" />
  <rect
     x="308.797"
     y="168.898"
     width="5.94928"
     height="5.94928"
     rx="2.97464"
     fill="black"
     id="rect44" />
  <rect
     x="373.746"
     y="168.898"
     width="5.94928"
     height="5.94928"
     rx="2.97464"
     fill="black"
     id="rect45" />
  <rect
     x="438.695"
     y="168.898"
     width="5.94928"
     height="5.94928"
     rx="2.97464"
     fill="black"
     id="rect46" />
  <rect
     x="503.645"
     y="168.898"
     width="5.94928"
     height="5.94928"
     rx="2.97464"
     fill="black"
     id="rect47" />
  <rect
     x="568.594"
     y="168.898"
     width="5.94928"
     height="5.94928"
     rx="2.97464"
     fill="black"
     id="rect48" />
  <rect
     x="633.543"
     y="168.898"
     width="5.94928"
     height="5.94928"
     rx="2.97464"
     fill="black"
     id="rect49" />
  <rect
     x="698.492"
     y="168.898"
     width="5.94928"
     height="5.94928"
     rx="2.97464"
     fill="black"
     id="rect50" />
  <rect
     x="763.441"
     y="168.898"
     width="5.94928"
     height="5.94928"
     rx="2.97464"
     fill="black"
     id="rect51" />
  <rect
     x="828.391"
     y="168.898"
     width="5.94928"
     height="5.94928"
     rx="2.97464"
     fill="black"
     id="rect52" />
  <rect
     x="893.34"
     y="168.898"
     width="5.94928"
     height="5.94928"
     rx="2.97464"
     fill="black"
     id="rect53" />
  <rect
     x="958.289"
     y="168.898"
     width="5.94928"
     height="5.94928"
     rx="2.97464"
     fill="black"
     id="rect54" />
  <rect
     x="1023.24"
     y="168.898"
     width="5.94928"
     height="5.94928"
     rx="2.97464"
     fill="black"
     id="rect55" />
  <rect
     x="1088.19"
     y="168.898"
     width="5.94928"
     height="5.94928"
     rx="2.97464"
     fill="black"
     id="rect56" />
  <rect
     x="1153.14"
     y="168.898"
     width="5.94928"
     height="5.94928"
     rx="2.97464"
     fill="black"
     id="rect57" />
  <rect
     x="1218.09"
     y="168.898"
     width="5.94928"
     height="5.94928"
     rx="2.97464"
     fill="black"
     id="rect58" />
  <rect
     x="1283.04"
     y="168.898"
     width="5.94928"
     height="5.94928"
     rx="2.97464"
     fill="black"
     id="rect59" />
  <rect
     x="1347.98"
     y="168.898"
     width="5.94928"
     height="5.94928"
     rx="2.97464"
     fill="black"
     id="rect60" />
  <rect
     x="1412.93"
     y="168.898"
     width="5.94928"
     height="5.94928"
     rx="2.97464"
     fill="black"
     id="rect61" />
  <rect
     x="1607.78"
     y="168.898"
     width="5.94928"
     height="5.94928"
     rx="2.97464"
     fill="black"
     id="rect62" />
  <rect
     x="1802.95"
     y="168.898"
     width="5.94928"
     height="5.94928"
     rx="2.97464"
     fill="black"
     id="rect63" />
  <rect
     x="1802.95"
     y="429"
     width="5.94928"
     height="5.94928"
     rx="2.97464"
     fill="black"
     id="rect64" />
  <rect
     x="1802.95"
     y="819"
     width="5.94928"
     height="5.94928"
     rx="2.97464"
     fill="black"
     id="rect65" />
  <rect
     x="1477.88"
     y="168.898"
     width="5.94928"
     height="5.94928"
     rx="2.97464"
     fill="black"
     id="rect66" />
  <rect
     x="1542.83"
     y="168.898"
     width="5.94928"
     height="5.94928"
     rx="2.97464"
     fill="black"
     id="rect67" />
  <rect
     x="1738"
     y="168.898"
     width="5.94928"
     height="5.94928"
     rx="2.97464"
     fill="black"
     id="rect68" />
  <rect
     x="1738"
     y="429"
     width="5.94928"
     height="5.94928"
     rx="2.97464"
     fill="black"
     id="rect69" />
  <rect
     x="1738"
     y="819"
     width="5.94928"
     height="5.94928"
     rx="2.97464"
     fill="black"
     id="rect70" />
  <rect
     x="1673"
     y="168.898"
     width="5.94928"
     height="5.94928"
     rx="2.97464"
     fill="black"
     id="rect71" />
  <rect
     x="1868.17"
     y="168.898"
     width="5.94928"
     height="5.94928"
     rx="2.97464"
     fill="black"
     id="rect72" />
  <rect
     x="1673"
     y="429"
     width="5.94928"
     height="5.94928"
     rx="2.97464"
     fill="black"
     id="rect73" />
  <rect
     x="1673"
     y="819"
     width="5.94928"
     height="5.94928"
     rx="2.97464"
     fill="black"
     id="rect74" />
  <rect
     x="1868.17"
     y="429"
     width="5.94928"
     height="5.94928"
     rx="2.97464"
     fill="black"
     id="rect75" />
  <rect
     x="1868.17"
     y="819"
     width="5.94928"
     height="5.94928"
     rx="2.97464"
     fill="black"
     id="rect76" />
  <rect
     x="49"
     y="233.848"
     width="5.94928"
     height="5.94928"
     rx="2.97464"
     fill="black"
     id="rect77" />
  <rect
     x="49"
     y="493.949"
     width="5.94928"
     height="5.94928"
     rx="2.97464"
     fill="black"
     id="rect78" />
  <rect
     x="49"
     y="883.949"
     width="5.94928"
     height="5.94928"
     rx="2.97464"
     fill="black"
     id="rect79" />
  <rect
     x="113.949"
     y="233.848"
     width="5.94928"
     height="5.94928"
     rx="2.97464"
     fill="black"
     id="rect80" />
  <rect
     x="113.949"
     y="493.949"
     width="5.94928"
     height="5.94928"
     rx="2.97464"
     fill="black"
     id="rect81" />
  <rect
     x="113.949"
     y="883.949"
     width="5.94928"
     height="5.94928"
     rx="2.97464"
     fill="black"
     id="rect82" />
  <rect
     x="178.898"
     y="233.848"
     width="5.94928"
     height="5.94928"
     rx="2.97464"
     fill="black"
     id="rect83" />
  <rect
     x="178.898"
     y="493.949"
     width="5.94928"
     height="5.94928"
     rx="2.97464"
     fill="black"
     id="rect84" />
  <rect
     x="178.898"
     y="883.949"
     width="5.94928"
     height="5.94928"
     rx="2.97464"
     fill="black"
     id="rect85" />
  <rect
     x="243.848"
     y="233.848"
     width="5.94928"
     height="5.94928"
     rx="2.97464"
     fill="black"
     id="rect86" />
  <rect
     x="243.848"
     y="493.949"
     width="5.94928"
     height="5.94928"
     rx="2.97464"
     fill="black"
     id="rect87" />
  <rect
     x="243.848"
     y="883.949"
     width="5.94928"
     height="5.94928"
     rx="2.97464"
     fill="black"
     id="rect88" />
  <rect
     x="308.797"
     y="233.848"
     width="5.94928"
     height="5.94928"
     rx="2.97464"
     fill="black"
     id="rect89" />
  <rect
     x="373.746"
     y="233.848"
     width="5.94928"
     height="5.94928"
     rx="2.97464"
     fill="black"
     id="rect90" />
  <rect
     x="438.695"
     y="233.848"
     width="5.94928"
     height="5.94928"
     rx="2.97464"
     fill="black"
     id="rect91" />
  <rect
     x="503.645"
     y="233.848"
     width="5.94928"
     height="5.94928"
     rx="2.97464"
     fill="black"
     id="rect92" />
  <rect
     x="568.594"
     y="233.848"
     width="5.94928"
     height="5.94928"
     rx="2.97464"
     fill="black"
     id="rect93" />
  <rect
     x="633.543"
     y="233.848"
     width="5.94928"
     height="5.94928"
     rx="2.97464"
     fill="black"
     id="rect94" />
  <rect
     x="698.492"
     y="233.848"
     width="5.94928"
     height="5.94928"
     rx="2.97464"
     fill="black"
     id="rect95" />
  <rect
     x="763.441"
     y="233.848"
     width="5.94928"
     height="5.94928"
     rx="2.97464"
     fill="black"
     id="rect96" />
  <rect
     x="828.391"
     y="233.848"
     width="5.94928"
     height="5.94928"
     rx="2.97464"
     fill="black"
     id="rect97" />
  <rect
     x="893.34"
     y="233.848"
     width="5.94928"
     height="5.94928"
     rx="2.97464"
     fill="black"
     id="rect98" />
  <rect
     x="958.289"
     y="233.848"
     width="5.94928"
     height="5.94928"
     rx="2.97464"
     fill="black"
     id="rect99" />
  <rect
     x="1023.24"
     y="233.848"
     width="5.94928"
     height="5.94928"
     rx="2.97464"
     fill="black"
     id="rect100" />
  <rect
     x="1088.19"
     y="233.848"
     width="5.94928"
     height="5.94928"
     rx="2.97464"
     fill="black"
     id="rect101" />
  <rect
     x="1153.14"
     y="233.848"
     width="5.94928"
     height="5.94928"
     rx="2.97464"
     fill="black"
     id="rect102" />
  <rect
     x="1218.09"
     y="233.848"
     width="5.94928"
     height="5.94928"
     rx="2.97464"
     fill="black"
     id="rect103" />
  <rect
     x="1283.04"
     y="233.848"
     width="5.94928"
     height="5.94928"
     rx="2.97464"
     fill="black"
     id="rect104" />
  <rect
     x="1347.98"
     y="233.848"
     width="5.94928"
     height="5.94928"
     rx="2.97464"
     fill="black"
     id="rect105" />
  <rect
     x="1607.78"
     y="233.848"
     width="5.94928"
     height="5.94928"
     rx="2.97464"
     fill="black"
     id="rect106" />
  <rect
     x="1802.95"
     y="233.848"
     width="5.94928"
     height="5.94928"
     rx="2.97464"
     fill="black"
     id="rect107" />
  <rect
     x="1802.95"
     y="493.949"
     width="5.94928"
     height="5.94928"
     rx="2.97464"
     fill="black"
     id="rect108" />
  <rect
     x="1802.95"
     y="883.949"
     width="5.94928"
     height="5.94928"
     rx="2.97464"
     fill="black"
     id="rect109" />
  <rect
     x="1412.93"
     y="233.848"
     width="5.94928"
     height="5.94928"
     rx="2.97464"
     fill="black"
     id="rect110" />
  <rect
     x="1477.88"
     y="233.848"
     width="5.94928"
     height="5.94928"
     rx="2.97464"
     fill="black"
     id="rect111" />
  <rect
     x="1542.83"
     y="233.848"
     width="5.94928"
     height="5.94928"
     rx="2.97464"
     fill="black"
     id="rect112" />
  <rect
     x="1738"
     y="233.848"
     width="5.94928"
     height="5.94928"
     rx="2.97464"
     fill="black"
     id="rect113" />
  <rect
     x="1738"
     y="493.949"
     width="5.94928"
     height="5.94928"
     rx="2.97464"
     fill="black"
     id="rect114" />
  <rect
     x="1738"
     y="883.949"
     width="5.94928"
     height="5.94928"
     rx="2.97464"
     fill="black"
     id="rect115" />
  <rect
     x="1673"
     y="233.848"
     width="5.94928"
     height="5.94928"
     rx="2.97464"
     fill="black"
     id="rect116" />
  <rect
     x="1868.17"
     y="233.848"
     width="5.94928"
     height="5.94928"
     rx="2.97464"
     fill="black"
     id="rect117" />
  <rect
     x="1673"
     y="493.949"
     width="5.94928"
     height="5.94928"
     rx="2.97464"
     fill="black"
     id="rect118" />
  <rect
     x="1673"
     y="883.949"
     width="5.94928"
     height="5.94928"
     rx="2.97464"
     fill="black"
     id="rect119" />
  <rect
     x="1868.17"
     y="493.949"
     width="5.94928"
     height="5.94928"
     rx="2.97464"
     fill="black"
     id="rect120" />
  <rect
     x="1868.17"
     y="883.949"
     width="5.94928"
     height="5.94928"
     rx="2.97464"
     fill="black"
     id="rect121" />
  <rect
     x="49"
     y="299"
     width="5.94928"
     height="5.94928"
     rx="2.97464"
     fill="black"
     id="rect122" />
  <rect
     x="49"
     y="689"
     width="5.94928"
     height="5.94928"
     rx="2.97464"
     fill="black"
     id="rect123" />
  <rect
     x="49"
     y="559.102"
     width="5.94928"
     height="5.94928"
     rx="2.97464"
     fill="black"
     id="rect124" />
  <rect
     x="49"
     y="949.102"
     width="5.94928"
     height="5.94928"
     rx="2.97464"
     fill="black"
     id="rect125" />
  <rect
     x="113.949"
     y="299"
     width="5.94928"
     height="5.94928"
     rx="2.97464"
     fill="black"
     id="rect126" />
  <rect
     x="113.949"
     y="689"
     width="5.94928"
     height="5.94928"
     rx="2.97464"
     fill="black"
     id="rect127" />
  <rect
     x="113.949"
     y="559.102"
     width="5.94928"
     height="5.94928"
     rx="2.97464"
     fill="black"
     id="rect128" />
  <rect
     x="113.949"
     y="949.102"
     width="5.94928"
     height="5.94928"
     rx="2.97464"
     fill="black"
     id="rect129" />
  <rect
     x="178.898"
     y="299"
     width="5.94928"
     height="5.94928"
     rx="2.97464"
     fill="black"
     id="rect130" />
  <rect
     x="178.898"
     y="689"
     width="5.94928"
     height="5.94928"
     rx="2.97464"
     fill="black"
     id="rect131" />
  <rect
     x="178.898"
     y="559.102"
     width="5.94928"
     height="5.94928"
     rx="2.97464"
     fill="black"
     id="rect132" />
  <rect
     x="178.898"
     y="949.102"
     width="5.94928"
     height="5.94928"
     rx="2.97464"
     fill="black"
     id="rect133" />
  <rect
     x="243.848"
     y="299"
     width="5.94928"
     height="5.94928"
     rx="2.97464"
     fill="black"
     id="rect134" />
  <rect
     x="243.848"
     y="689"
     width="5.94928"
     height="5.94928"
     rx="2.97464"
     fill="black"
     id="rect135" />
  <rect
     x="243.848"
     y="559.102"
     width="5.94928"
     height="5.94928"
     rx="2.97464"
     fill="black"
     id="rect136" />
  <rect
     x="243.848"
     y="949.102"
     width="5.94928"
     height="5.94928"
     rx="2.97464"
     fill="black"
     id="rect137" />
  <rect
     x="1802.95"
     y="299"
     width="5.94928"
     height="5.94928"
     rx="2.97464"
     fill="black"
     id="rect138" />
  <rect
     x="1802.95"
     y="689"
     width="5.94928"
     height="5.94928"
     rx="2.97464"
     fill="black"
     id="rect139" />
  <rect
     x="1802.95"
     y="559.102"
     width="5.94928"
     height="5.94928"
     rx="2.97464"
     fill="black"
     id="rect140" />
  <rect
     x="1802.95"
     y="949.102"
     width="5.94928"
     height="5.94928"
     rx="2.97464"
     fill="black"
     id="rect141" />
  <rect
     x="1738"
     y="299"
     width="5.94928"
     height="5.94928"
     rx="2.97464"
     fill="black"
     id="rect142" />
  <rect
     x="1738"
     y="689"
     width="5.94928"
     height="5.94928"
     rx="2.97464"
     fill="black"
     id="rect143" />
  <rect
     x="1738"
     y="559.102"
     width="5.94928"
     height="5.94928"
     rx="2.97464"
     fill="black"
     id="rect144" />
  <rect
     x="1738"
     y="949.102"
     width="5.94928"
     height="5.94928"
     rx="2.97464"
     fill="black"
     id="rect145" />
  <rect
     x="1673"
     y="299"
     width="5.94928"
     height="5.94928"
     rx="2.97464"
     fill="black"
     id="rect146" />
  <rect
     x="1673"
     y="689"
     width="5.94928"
     height="5.94928"
     rx="2.97464"
     fill="black"
     id="rect147" />
  <rect
     x="1868.17"
     y="299"
     width="5.94928"
     height="5.94928"
     rx="2.97464"
     fill="black"
     id="rect148" />
  <rect
     x="1868.17"
     y="689"
     width="5.94928"
     height="5.94928"
     rx="2.97464"
     fill="black"
     id="rect149" />
  <rect
     x="1673"
     y="559.102"
     width="5.94928"
     height="5.94928"
     rx="2.97464"
     fill="black"
     id="rect150" />
  <rect
     x="1673"
     y="949.102"
     width="5.94928"
     height="5.94928"
     rx="2.97464"
     fill="black"
     id="rect151" />
  <rect
     x="1868.17"
     y="559.102"
     width="5.94928"
     height="5.94928"
     rx="2.97464"
     fill="black"
     id="rect152" />
  <rect
     x="1868.17"
     y="949.102"
     width="5.94928"
     height="5.94928"
     rx="2.97464"
     fill="black"
     id="rect153" />
  <rect
     x="49"
     y="363.949"
     width="5.94928"
     height="5.94928"
     rx="2.97464"
     fill="black"
     id="rect154" />
  <rect
     x="49"
     y="753.949"
     width="5.94928"
     height="5.94928"
     rx="2.97464"
     fill="black"
     id="rect155" />
  <rect
     x="49"
     y="624.051"
     width="5.94928"
     height="5.94928"
     rx="2.97464"
     fill="black"
     id="rect156" />
  <rect
     x="49"
     y="1014.05"
     width="5.94928"
     height="5.94928"
     rx="2.97464"
     fill="black"
     id="rect157" />
  <rect
     x="113.949"
     y="363.949"
     width="5.94928"
     height="5.94928"
     rx="2.97464"
     fill="black"
     id="rect158" />
  <rect
     x="113.949"
     y="753.949"
     width="5.94928"
     height="5.94928"
     rx="2.97464"
     fill="black"
     id="rect159" />
  <rect
     x="113.949"
     y="624.051"
     width="5.94928"
     height="5.94928"
     rx="2.97464"
     fill="black"
     id="rect160" />
  <rect
     x="113.949"
     y="1014.05"
     width="5.94928"
     height="5.94928"
     rx="2.97464"
     fill="black"
     id="rect161" />
  <rect
     x="178.898"
     y="363.949"
     width="5.94928"
     height="5.94928"
     rx="2.97464"
     fill="black"
     id="rect162" />
  <rect
     x="178.898"
     y="753.949"
     width="5.94928"
     height="5.94928"
     rx="2.97464"
     fill="black"
     id="rect163" />
  <rect
     x="178.898"
     y="624.051"
     width="5.94928"
     height="5.94928"
     rx="2.97464"
     fill="black"
     id="rect164" />
  <rect
     x="178.898"
     y="1014.05"
     width="5.94928"
     height="5.94928"
     rx="2.97464"
     fill="black"
     id="rect165" />
  <rect
     x="243.848"
     y="363.949"
     width="5.94928"
     height="5.94928"
     rx="2.97464"
     fill="black"
     id="rect166" />
  <rect
     x="243.848"
     y="753.949"
     width="5.94928"
     height="5.94928"
     rx="2.97464"
     fill="black"
     id="rect167" />
  <rect
     x="243.848"
     y="624.051"
     width="5.94928"
     height="5.94928"
     rx="2.97464"
     fill="black"
     id="rect168" />
  <rect
     x="243.848"
     y="1014.05"
     width="5.94928"
     height="5.94928"
     rx="2.97464"
     fill="black"
     id="rect169" />
  <rect
     x="1802.95"
     y="363.949"
     width="5.94928"
     height="5.94928"
     rx="2.97464"
     fill="black"
     id="rect170" />
  <rect
     x="1802.95"
     y="753.949"
     width="5.94928"
     height="5.94928"
     rx="2.97464"
     fill="black"
     id="rect171" />
  <rect
     x="1802.95"
     y="624.051"
     width="5.94928"
     height="5.94928"
     rx="2.97464"
     fill="black"
     id="rect172" />
  <rect
     x="1802.95"
     y="1014.05"
     width="5.94928"
     height="5.94928"
     rx="2.97464"
     fill="black"
     id="rect173" />
  <rect
     x="1738"
     y="363.949"
     width="5.94928"
     height="5.94928"
     rx="2.97464"
     fill="black"
     id="rect174" />
  <rect
     x="1738"
     y="753.949"
     width="5.94928"
     height="5.94928"
     rx="2.97464"
     fill="black"
     id="rect175" />
  <rect
     x="1738"
     y="624.051"
     width="5.94928"
     height="5.94928"
     rx="2.97464"
     fill="black"
     id="rect176" />
  <rect
     x="1738"
     y="1014.05"
     width="5.94928"
     height="5.94928"
     rx="2.97464"
     fill="black"
     id="rect177" />
  <rect
     x="1673"
     y="363.949"
     width="5.94928"
     height="5.94928"
     rx="2.97464"
     fill="black"
     id="rect178" />
  <rect
     x="1673"
     y="753.949"
     width="5.94928"
     height="5.94928"
     rx="2.97464"
     fill="black"
     id="rect179" />
  <rect
     x="1868.17"
     y="363.949"
     width="5.94928"
     height="5.94928"
     rx="2.97464"
     fill="black"
     id="rect180" />
  <rect
     x="1868.17"
     y="753.949"
     width="5.94928"
     height="5.94928"
     rx="2.97464"
     fill="black"
     id="rect181" />
  <rect
     x="1673"
     y="624.051"
     width="5.94928"
     height="5.94928"
     rx="2.97464"
     fill="black"
     id="rect182" />
  <rect
     x="1673"
     y="1014.05"
     width="5.94928"
     height="5.94928"
     rx="2.97464"
     fill="black"
     id="rect183" />
  <rect
     x="1868.17"
     y="624.051"
     width="5.94928"
     height="5.94928"
     rx="2.97464"
     fill="black"
     id="rect184" />
  <rect
     x="1868.17"
     y="1014.05"
     width="5.94928"
     height="5.94928"
     rx="2.97464"
     fill="black"
     id="rect185" />
</svg>
