<svg width="1920" height="916" viewBox="0 0 1920 916" fill="none" xmlns="http://www.w3.org/2000/svg">
<path fill-rule="evenodd" clip-rule="evenodd" d="M441.5 83C197.668 83 0 280.667 0 524.5V916H1920V524.5C1920 280.667 1722.33 83 1478.5 83H441.5ZM611 292C542.516 292 487 347.517 487 416C487 484.483 542.516 540 611 540H1308C1376.48 540 1432 484.483 1432 416C1432 347.517 1376.48 292 1308 292H611Z" fill="#77C6E4"/>
<circle cx="211.5" cy="578.5" r="211.5" fill="url(#paint0_radial_105_4753)"/>
<circle cx="1708.5" cy="578.5" r="211.5" fill="url(#paint1_radial_105_4753)"/>
<circle cx="302.5" cy="329.5" r="62.5" fill="white"/>
<circle cx="312.183" cy="330.381" r="36.9718" fill="black"/>
<circle cx="1617.5" cy="329.5" r="62.5" transform="rotate(-180 1617.5 329.5)" fill="white"/>
<circle cx="1607.82" cy="328.619" r="36.9718" transform="rotate(-180 1607.82 328.619)" fill="black"/>
<path d="M942.978 6.28005L746 94.5L1101.5 136.5L1141.99 60.3439C1147.32 50.3181 1138.14 38.7564 1127.17 41.6787L1079.01 54.5051C1069.18 57.1241 1060.3 47.8926 1063.23 38.1482C1066.27 28.0409 1056.65 18.6613 1046.65 22.0289L982.714 43.5517C975.571 45.9564 967.886 41.8014 965.986 34.5072L960.872 14.8683C958.846 7.08843 950.315 2.99399 942.978 6.28005Z" fill="#77C6E4"/>
<defs>
<radialGradient id="paint0_radial_105_4753" cx="0" cy="0" r="1" gradientUnits="userSpaceOnUse" gradientTransform="translate(211.5 578.5) rotate(90) scale(211.5)">
<stop stop-color="#A9E5FC"/>
<stop offset="1" stop-color="#77C6E4"/>
</radialGradient>
<radialGradient id="paint1_radial_105_4753" cx="0" cy="0" r="1" gradientUnits="userSpaceOnUse" gradientTransform="translate(1708.5 578.5) rotate(90) scale(211.5)">
<stop stop-color="#A9E5FC"/>
<stop offset="1" stop-color="#77C6E4"/>
</radialGradient>
</defs>
</svg>
