<?xml version="1.0" encoding="UTF-8" standalone="no"?>
<svg
   width="1280"
   height="252"
   viewBox="0 0 1280 252"
   fill="none"
   version="1.1"
   id="svg2"
   sodipodi:docname="character_hands.svg"
   inkscape:version="1.3.2 (091e20ef0f, 2023-11-25, custom)"
   xmlns:inkscape="http://www.inkscape.org/namespaces/inkscape"
   xmlns:sodipodi="http://sodipodi.sourceforge.net/DTD/sodipodi-0.dtd"
   xmlns="http://www.w3.org/2000/svg"
   xmlns:svg="http://www.w3.org/2000/svg">
  <defs
     id="defs2" />
  <sodipodi:namedview
     id="namedview2"
     pagecolor="#ffffff"
     bordercolor="#000000"
     borderopacity="0.25"
     inkscape:showpageshadow="2"
     inkscape:pageopacity="0.0"
     inkscape:pagecheckerboard="0"
     inkscape:deskcolor="#d1d1d1"
     showgrid="false"
     inkscape:zoom="1.4235172"
     inkscape:cx="528.97149"
     inkscape:cy="144.71199"
     inkscape:window-width="3440"
     inkscape:window-height="1371"
     inkscape:window-x="0"
     inkscape:window-y="0"
     inkscape:window-maximized="1"
     inkscape:current-layer="svg2" />
  <g
     id="g2"
     transform="matrix(0.66614086,0,0,0.65304109,-0.16136646,0)">
    <path
       d="M 259.205,127.174 0,0 v 322 l 146.039,40.967 c 18.353,5.148 34.337,-13.524 26.421,-30.863 -5.906,-12.939 1.588,-28.035 15.465,-31.151 l 35.084,-7.88 c 15.419,-3.463 22.833,-21.086 14.527,-34.53 l -20.314,-32.879 c -6.328,-10.243 -3.686,-23.633 6.058,-30.704 l 39.303,-28.523 c 14.027,-10.18 12.182,-31.629 -3.378,-39.263 z"
       fill="#41a2c7"
       id="path1" />
    <path
       d="M 1633.89,126.873 1922,0 v 322 l -167.52,42.177 c -18.33,4.615 -33.57,-14.489 -25,-31.337 6.61,-12.985 -0.99,-28.69 -15.28,-31.569 l -41.59,-8.385 c -16.18,-3.261 -23.76,-21.994 -14.4,-35.588 l 20.9,-30.363 c 7.33,-10.652 4.44,-25.254 -6.39,-32.313 l -42.11,-27.428 c -15.31,-9.973 -13.44,-32.957 3.28,-40.321 z"
       fill="#41a2c7"
       id="path2" />
  </g>
</svg>
