<svg width="1920" height="1080" viewBox="0 0 1920 1080" fill="none" xmlns="http://www.w3.org/2000/svg">
<path d="M115.88 118L114.12 95.664H116.52L117.448 108.464L117.928 115.216H118.184L121.128 101.488H124.136L127.08 115.216H127.336L127.816 108.464L128.744 95.664H131.08L129.32 118H125.448L122.728 104.656H122.472L119.752 118H115.88ZM146.14 107.856H137.436V118H134.748V95.664H137.436V105.52H146.14V95.664H148.828V118H146.14V107.856ZM154.063 118V115.856H159.631V97.808H154.063V95.664H167.887V97.808H162.319V115.856H167.887V118H154.063ZM180.899 118.384C178.168 118.384 176.131 117.392 174.786 115.408C173.464 113.424 172.803 110.565 172.803 106.832C172.803 103.099 173.464 100.24 174.786 98.256C176.131 96.272 178.168 95.28 180.899 95.28C181.923 95.28 182.808 95.4187 183.555 95.696C184.301 95.9733 184.941 96.3467 185.475 96.816C186.008 97.2853 186.456 97.8187 186.819 98.416C187.181 98.992 187.501 99.5787 187.779 100.176L185.475 101.232C185.283 100.741 185.059 100.283 184.803 99.856C184.547 99.408 184.237 99.024 183.875 98.704C183.533 98.3627 183.117 98.096 182.627 97.904C182.157 97.712 181.581 97.616 180.899 97.616C179.128 97.616 177.805 98.288 176.931 99.632C176.077 100.976 175.651 102.768 175.651 105.008V108.656C175.651 110.896 176.077 112.688 176.931 114.032C177.805 115.376 179.128 116.048 180.899 116.048C181.581 116.048 182.157 115.952 182.627 115.76C183.117 115.568 183.533 115.312 183.875 114.992C184.237 114.651 184.547 114.267 184.803 113.84C185.059 113.392 185.283 112.923 185.475 112.432L187.779 113.488C187.501 114.107 187.181 114.704 186.819 115.28C186.456 115.856 186.008 116.379 185.475 116.848C184.941 117.317 184.301 117.691 183.555 117.968C182.808 118.245 181.923 118.384 180.899 118.384ZM203.702 107.856H194.998V118H192.31V95.664H194.998V105.52H203.702V95.664H206.39V118H203.702V107.856ZM233.341 99.088H233.117V118H230.685V95.664H234.493L242.109 114.384H242.333V95.664H244.765V118H240.957L233.341 99.088ZM256.913 118.384C255.547 118.384 254.374 118.128 253.393 117.616C252.411 117.083 251.601 116.325 250.961 115.344C250.321 114.363 249.851 113.157 249.553 111.728C249.254 110.299 249.105 108.667 249.105 106.832C249.105 105.019 249.254 103.397 249.553 101.968C249.851 100.517 250.321 99.3013 250.961 98.32C251.601 97.3387 252.411 96.592 253.393 96.08C254.374 95.5467 255.547 95.28 256.913 95.28C258.278 95.28 259.451 95.5467 260.433 96.08C261.414 96.592 262.225 97.3387 262.865 98.32C263.505 99.3013 263.974 100.517 264.273 101.968C264.571 103.397 264.721 105.019 264.721 106.832C264.721 108.667 264.571 110.299 264.273 111.728C263.974 113.157 263.505 114.363 262.865 115.344C262.225 116.325 261.414 117.083 260.433 117.616C259.451 118.128 258.278 118.384 256.913 118.384ZM256.913 116.048C257.809 116.048 258.566 115.877 259.185 115.536C259.803 115.173 260.315 114.672 260.721 114.032C261.126 113.392 261.414 112.624 261.585 111.728C261.777 110.811 261.873 109.787 261.873 108.656V105.008C261.873 103.899 261.777 102.885 261.585 101.968C261.414 101.051 261.126 100.272 260.721 99.632C260.315 98.992 259.803 98.5013 259.185 98.16C258.566 97.7973 257.809 97.616 256.913 97.616C256.017 97.616 255.259 97.7973 254.641 98.16C254.022 98.5013 253.51 98.992 253.105 99.632C252.699 100.272 252.401 101.051 252.209 101.968C252.038 102.885 251.953 103.899 251.953 105.008V108.656C251.953 109.787 252.038 110.811 252.209 111.728C252.401 112.624 252.699 113.392 253.105 114.032C253.51 114.672 254.022 115.173 254.641 115.536C255.259 115.877 256.017 116.048 256.913 116.048ZM277.444 98V118H274.756V98H267.3V95.664H284.9V98H277.444ZM288.568 118V95.664H302.328V98H291.256V105.52H301.944V107.856H291.256V115.664H302.328V118H288.568ZM338.015 107.856H329.311V118H326.623V95.664H329.311V105.52H338.015V95.664H340.703V118H338.015V107.856ZM358.642 118L356.754 111.632H348.914L347.026 118H344.242L351.09 95.664H354.642L361.49 118H358.642ZM352.978 98.512H352.69L349.554 109.296H356.114L352.978 98.512ZM371.974 118.384C369.968 118.384 368.326 118.021 367.046 117.296C365.766 116.549 364.71 115.6 363.878 114.448L365.83 112.848C366.704 113.936 367.622 114.747 368.582 115.28C369.563 115.813 370.726 116.08 372.07 116.08C373.691 116.08 374.928 115.707 375.782 114.96C376.635 114.213 377.062 113.168 377.062 111.824C377.062 110.736 376.752 109.893 376.134 109.296C375.515 108.677 374.438 108.24 372.902 107.984L370.406 107.568C369.318 107.376 368.4 107.088 367.654 106.704C366.928 106.32 366.342 105.861 365.894 105.328C365.446 104.773 365.126 104.176 364.934 103.536C364.742 102.875 364.646 102.192 364.646 101.488C364.646 99.44 365.318 97.8933 366.661 96.848C368.006 95.8027 369.819 95.28 372.102 95.28C373.894 95.28 375.398 95.5787 376.614 96.176C377.851 96.7733 378.843 97.616 379.59 98.704L377.702 100.336C377.083 99.5253 376.336 98.864 375.462 98.352C374.587 97.84 373.456 97.584 372.07 97.584C370.555 97.584 369.392 97.904 368.582 98.544C367.771 99.184 367.366 100.144 367.366 101.424C367.366 102.427 367.664 103.248 368.262 103.888C368.88 104.507 369.979 104.955 371.558 105.232L373.958 105.648C375.046 105.84 375.963 106.128 376.71 106.512C377.456 106.896 378.054 107.355 378.502 107.888C378.971 108.421 379.302 109.019 379.494 109.68C379.686 110.341 379.782 111.035 379.782 111.76C379.782 113.829 379.099 115.451 377.734 116.624C376.39 117.797 374.47 118.384 371.974 118.384ZM403.277 95.664H411.117C413.314 95.664 414.989 96.1973 416.141 97.264C417.314 98.3307 417.901 99.7813 417.901 101.616C417.901 102.896 417.581 103.92 416.941 104.688C416.322 105.435 415.426 105.979 414.253 106.32V106.512C415.639 106.853 416.706 107.451 417.453 108.304C418.221 109.157 418.605 110.341 418.605 111.856C418.605 113.733 418.007 115.227 416.812 116.336C415.639 117.445 413.986 118 411.853 118H403.277V95.664ZM410.381 114.64C411.533 114.64 412.375 114.448 412.909 114.064C413.442 113.68 413.709 112.976 413.709 111.952V111.024C413.709 110 413.442 109.296 412.909 108.912C412.375 108.528 411.533 108.336 410.381 108.336H407.949V114.64H410.381ZM409.773 105.136C410.903 105.136 411.725 104.955 412.237 104.592C412.749 104.208 413.005 103.525 413.005 102.544V101.584C413.005 100.603 412.749 99.9307 412.237 99.568C411.725 99.2053 410.903 99.024 409.773 99.024H407.949V105.136H409.773ZM422.56 118V95.664H436.832V99.6H427.36V104.72H436.512V108.656H427.36V114.064H436.832V118H422.56ZM441.748 118V95.664H456.02V99.6H446.548V104.72H455.7V108.656H446.548V114.064H456.02V118H441.748ZM464.775 103.152H464.423V118H460.327V95.664H466.087L471.175 110.512H471.527V95.664H475.623V118H469.863L464.775 103.152ZM499.182 118V95.664H507.822C508.91 95.664 509.881 95.8347 510.734 96.176C511.587 96.496 512.302 96.9653 512.878 97.584C513.475 98.2027 513.923 98.9493 514.222 99.824C514.521 100.699 514.67 101.68 514.67 102.768C514.67 103.856 514.521 104.837 514.222 105.712C513.923 106.587 513.475 107.333 512.878 107.952C512.302 108.571 511.587 109.051 510.734 109.392C509.881 109.712 508.91 109.872 507.822 109.872H504.014V118H499.182ZM504.014 106H506.606C507.737 106 508.515 105.787 508.942 105.36C509.39 104.933 509.614 104.229 509.614 103.248V102.288C509.614 101.307 509.39 100.603 508.942 100.176C508.515 99.7493 507.737 99.536 506.606 99.536H504.014V106ZM518.882 118V95.664H523.714V114.064H533.314V118H518.882ZM549.045 118L547.637 112.624H541.525L540.149 118H535.285L541.333 95.664H548.117L554.165 118H549.045ZM544.725 100.304H544.469L542.293 108.752H546.901L544.725 100.304ZM561.513 118V110.096L554.441 95.664H559.785L562.153 100.848L563.881 105.232H564.137L565.865 100.848L568.233 95.664H573.385L566.313 110.096V118H561.513ZM576.06 118V95.664H590.332V99.6H580.86V104.72H590.012V108.656H580.86V114.064H590.332V118H576.06ZM594.736 95.664H601.936C604.944 95.664 607.173 96.624 608.624 98.544C610.074 100.464 610.8 103.227 610.8 106.832C610.8 110.437 610.074 113.2 608.624 115.12C607.173 117.04 604.944 118 601.936 118H594.736V95.664ZM601.616 114.224C603.045 114.224 604.09 113.765 604.752 112.848C605.413 111.931 605.744 110.597 605.744 108.848V104.784C605.744 103.056 605.413 101.733 604.752 100.816C604.09 99.8987 603.045 99.44 601.616 99.44H599.472V114.224H601.616ZM618.531 110.544V105.648C620.131 105.584 621.4 105.307 622.339 104.816C623.278 104.325 623.747 103.472 623.747 102.256V101.808C623.747 100.912 623.48 100.272 622.947 99.888C622.435 99.504 621.795 99.312 621.027 99.312C620.152 99.312 619.438 99.568 618.883 100.08C618.328 100.571 617.944 101.221 617.731 102.032L613.827 100.4C614.019 99.76 614.296 99.1413 614.659 98.544C615.043 97.9253 615.534 97.3813 616.131 96.912C616.728 96.4213 617.443 96.0267 618.275 95.728C619.107 95.4293 620.078 95.28 621.187 95.28C622.318 95.28 623.342 95.44 624.259 95.76C625.198 96.08 625.998 96.528 626.659 97.104C627.32 97.68 627.832 98.3733 628.195 99.184C628.558 99.9947 628.739 100.88 628.739 101.84C628.739 102.736 628.579 103.557 628.259 104.304C627.96 105.029 627.544 105.669 627.011 106.224C626.499 106.757 625.891 107.195 625.187 107.536C624.504 107.877 623.779 108.112 623.011 108.24V110.544H618.531ZM620.835 118.384C619.704 118.384 618.894 118.139 618.403 117.648C617.934 117.157 617.699 116.571 617.699 115.888V114.864C617.699 114.181 617.934 113.605 618.403 113.136C618.894 112.645 619.704 112.4 620.835 112.4C621.966 112.4 622.776 112.645 623.267 113.136C623.758 113.627 624.003 114.203 624.003 114.864V115.888C624.003 116.571 623.758 117.157 623.267 117.648C622.798 118.139 621.987 118.384 620.835 118.384Z" fill="black"/>
<rect x="49" y="103.949" width="5.94928" height="5.94928" rx="2.97464" fill="black"/>
<rect x="1868.17" y="103.949" width="5.94928" height="5.94928" rx="2.97464" fill="black"/>
<rect x="49" y="39" width="5.94928" height="5.94928" rx="2.97464" fill="black"/>
<rect x="113.949" y="39" width="5.94928" height="5.94928" rx="2.97464" fill="black"/>
<rect x="178.898" y="39" width="5.94928" height="5.94928" rx="2.97464" fill="black"/>
<rect x="243.848" y="39" width="5.94928" height="5.94928" rx="2.97464" fill="black"/>
<rect x="308.797" y="39" width="5.94928" height="5.94928" rx="2.97464" fill="black"/>
<rect x="373.746" y="39" width="5.94928" height="5.94928" rx="2.97464" fill="black"/>
<rect x="438.695" y="39" width="5.94928" height="5.94928" rx="2.97464" fill="black"/>
<rect x="503.645" y="39" width="5.94928" height="5.94928" rx="2.97464" fill="black"/>
<rect x="568.594" y="39" width="5.94928" height="5.94928" rx="2.97464" fill="black"/>
<rect x="633.543" y="39" width="5.94928" height="5.94928" rx="2.97464" fill="black"/>
<rect x="698.492" y="39" width="5.94928" height="5.94928" rx="2.97464" fill="black"/>
<rect x="763.441" y="39" width="5.94928" height="5.94928" rx="2.97464" fill="black"/>
<rect x="828.391" y="39" width="5.94928" height="5.94928" rx="2.97464" fill="black"/>
<rect x="893.34" y="39" width="5.94928" height="5.94928" rx="2.97464" fill="black"/>
<rect x="958.289" y="39" width="5.94928" height="5.94928" rx="2.97464" fill="black"/>
<rect x="1023.24" y="39" width="5.94928" height="5.94928" rx="2.97464" fill="black"/>
<rect x="1088.19" y="39" width="5.94928" height="5.94928" rx="2.97464" fill="black"/>
<rect x="1153.14" y="39" width="5.94928" height="5.94928" rx="2.97464" fill="black"/>
<rect x="1218.09" y="39" width="5.94928" height="5.94928" rx="2.97464" fill="black"/>
<rect x="1283.04" y="39" width="5.94928" height="5.94928" rx="2.97464" fill="black"/>
<rect x="1347.98" y="39" width="5.94928" height="5.94928" rx="2.97464" fill="black"/>
<rect x="1412.93" y="39" width="5.94928" height="5.94928" rx="2.97464" fill="black"/>
<rect x="1477.88" y="39" width="5.94928" height="5.94928" rx="2.97464" fill="black"/>
<rect x="1607.78" y="39" width="5.94928" height="5.94928" rx="2.97464" fill="black"/>
<rect x="1802.95" y="39" width="5.94928" height="5.94928" rx="2.97464" fill="black"/>
<rect x="1542.83" y="39" width="5.94928" height="5.94928" rx="2.97464" fill="black"/>
<rect x="1738" y="39" width="5.94928" height="5.94928" rx="2.97464" fill="black"/>
<rect x="1673" y="39" width="5.94928" height="5.94928" rx="2.97464" fill="black"/>
<rect x="1868.17" y="39" width="5.94928" height="5.94928" rx="2.97464" fill="black"/>
<rect x="49" y="168.898" width="5.94928" height="5.94928" rx="2.97464" fill="black"/>
<rect x="49" y="429" width="5.94928" height="5.94928" rx="2.97464" fill="black"/>
<rect x="49" y="819" width="5.94928" height="5.94928" rx="2.97464" fill="black"/>
<rect x="113.949" y="168.898" width="5.94928" height="5.94928" rx="2.97464" fill="black"/>
<rect x="113.949" y="429" width="5.94928" height="5.94928" rx="2.97464" fill="black"/>
<rect x="113.949" y="819" width="5.94928" height="5.94928" rx="2.97464" fill="black"/>
<rect x="178.898" y="168.898" width="5.94928" height="5.94928" rx="2.97464" fill="black"/>
<rect x="178.898" y="429" width="5.94928" height="5.94928" rx="2.97464" fill="black"/>
<rect x="178.898" y="819" width="5.94928" height="5.94928" rx="2.97464" fill="black"/>
<rect x="243.848" y="168.898" width="5.94928" height="5.94928" rx="2.97464" fill="black"/>
<rect x="243.848" y="429" width="5.94928" height="5.94928" rx="2.97464" fill="black"/>
<rect x="243.848" y="819" width="5.94928" height="5.94928" rx="2.97464" fill="black"/>
<rect x="308.797" y="168.898" width="5.94928" height="5.94928" rx="2.97464" fill="black"/>
<rect x="373.746" y="168.898" width="5.94928" height="5.94928" rx="2.97464" fill="black"/>
<rect x="438.695" y="168.898" width="5.94928" height="5.94928" rx="2.97464" fill="black"/>
<rect x="503.645" y="168.898" width="5.94928" height="5.94928" rx="2.97464" fill="black"/>
<rect x="568.594" y="168.898" width="5.94928" height="5.94928" rx="2.97464" fill="black"/>
<rect x="633.543" y="168.898" width="5.94928" height="5.94928" rx="2.97464" fill="black"/>
<rect x="698.492" y="168.898" width="5.94928" height="5.94928" rx="2.97464" fill="black"/>
<rect x="763.441" y="168.898" width="5.94928" height="5.94928" rx="2.97464" fill="black"/>
<rect x="828.391" y="168.898" width="5.94928" height="5.94928" rx="2.97464" fill="black"/>
<rect x="893.34" y="168.898" width="5.94928" height="5.94928" rx="2.97464" fill="black"/>
<rect x="958.289" y="168.898" width="5.94928" height="5.94928" rx="2.97464" fill="black"/>
<rect x="1023.24" y="168.898" width="5.94928" height="5.94928" rx="2.97464" fill="black"/>
<rect x="1088.19" y="168.898" width="5.94928" height="5.94928" rx="2.97464" fill="black"/>
<rect x="1153.14" y="168.898" width="5.94928" height="5.94928" rx="2.97464" fill="black"/>
<rect x="1218.09" y="168.898" width="5.94928" height="5.94928" rx="2.97464" fill="black"/>
<rect x="1283.04" y="168.898" width="5.94928" height="5.94928" rx="2.97464" fill="black"/>
<rect x="1347.98" y="168.898" width="5.94928" height="5.94928" rx="2.97464" fill="black"/>
<rect x="1412.93" y="168.898" width="5.94928" height="5.94928" rx="2.97464" fill="black"/>
<rect x="1607.78" y="168.898" width="5.94928" height="5.94928" rx="2.97464" fill="black"/>
<rect x="1802.95" y="168.898" width="5.94928" height="5.94928" rx="2.97464" fill="black"/>
<rect x="1802.95" y="429" width="5.94928" height="5.94928" rx="2.97464" fill="black"/>
<rect x="1802.95" y="819" width="5.94928" height="5.94928" rx="2.97464" fill="black"/>
<rect x="1477.88" y="168.898" width="5.94928" height="5.94928" rx="2.97464" fill="black"/>
<rect x="1542.83" y="168.898" width="5.94928" height="5.94928" rx="2.97464" fill="black"/>
<rect x="1738" y="168.898" width="5.94928" height="5.94928" rx="2.97464" fill="black"/>
<rect x="1738" y="429" width="5.94928" height="5.94928" rx="2.97464" fill="black"/>
<rect x="1738" y="819" width="5.94928" height="5.94928" rx="2.97464" fill="black"/>
<rect x="1673" y="168.898" width="5.94928" height="5.94928" rx="2.97464" fill="black"/>
<rect x="1868.17" y="168.898" width="5.94928" height="5.94928" rx="2.97464" fill="black"/>
<rect x="1673" y="429" width="5.94928" height="5.94928" rx="2.97464" fill="black"/>
<rect x="1673" y="819" width="5.94928" height="5.94928" rx="2.97464" fill="black"/>
<rect x="1868.17" y="429" width="5.94928" height="5.94928" rx="2.97464" fill="black"/>
<rect x="1868.17" y="819" width="5.94928" height="5.94928" rx="2.97464" fill="black"/>
<rect x="49" y="233.848" width="5.94928" height="5.94928" rx="2.97464" fill="black"/>
<rect x="49" y="493.949" width="5.94928" height="5.94928" rx="2.97464" fill="black"/>
<rect x="49" y="883.949" width="5.94928" height="5.94928" rx="2.97464" fill="black"/>
<rect x="113.949" y="233.848" width="5.94928" height="5.94928" rx="2.97464" fill="black"/>
<rect x="113.949" y="493.949" width="5.94928" height="5.94928" rx="2.97464" fill="black"/>
<rect x="113.949" y="883.949" width="5.94928" height="5.94928" rx="2.97464" fill="black"/>
<rect x="178.898" y="233.848" width="5.94928" height="5.94928" rx="2.97464" fill="black"/>
<rect x="178.898" y="493.949" width="5.94928" height="5.94928" rx="2.97464" fill="black"/>
<rect x="178.898" y="883.949" width="5.94928" height="5.94928" rx="2.97464" fill="black"/>
<rect x="243.848" y="233.848" width="5.94928" height="5.94928" rx="2.97464" fill="black"/>
<rect x="243.848" y="493.949" width="5.94928" height="5.94928" rx="2.97464" fill="black"/>
<rect x="243.848" y="883.949" width="5.94928" height="5.94928" rx="2.97464" fill="black"/>
<rect x="308.797" y="233.848" width="5.94928" height="5.94928" rx="2.97464" fill="black"/>
<rect x="373.746" y="233.848" width="5.94928" height="5.94928" rx="2.97464" fill="black"/>
<rect x="438.695" y="233.848" width="5.94928" height="5.94928" rx="2.97464" fill="black"/>
<rect x="503.645" y="233.848" width="5.94928" height="5.94928" rx="2.97464" fill="black"/>
<rect x="568.594" y="233.848" width="5.94928" height="5.94928" rx="2.97464" fill="black"/>
<rect x="633.543" y="233.848" width="5.94928" height="5.94928" rx="2.97464" fill="black"/>
<rect x="698.492" y="233.848" width="5.94928" height="5.94928" rx="2.97464" fill="black"/>
<rect x="763.441" y="233.848" width="5.94928" height="5.94928" rx="2.97464" fill="black"/>
<rect x="828.391" y="233.848" width="5.94928" height="5.94928" rx="2.97464" fill="black"/>
<rect x="893.34" y="233.848" width="5.94928" height="5.94928" rx="2.97464" fill="black"/>
<rect x="958.289" y="233.848" width="5.94928" height="5.94928" rx="2.97464" fill="black"/>
<rect x="1023.24" y="233.848" width="5.94928" height="5.94928" rx="2.97464" fill="black"/>
<rect x="1088.19" y="233.848" width="5.94928" height="5.94928" rx="2.97464" fill="black"/>
<rect x="1153.14" y="233.848" width="5.94928" height="5.94928" rx="2.97464" fill="black"/>
<rect x="1218.09" y="233.848" width="5.94928" height="5.94928" rx="2.97464" fill="black"/>
<rect x="1283.04" y="233.848" width="5.94928" height="5.94928" rx="2.97464" fill="black"/>
<rect x="1347.98" y="233.848" width="5.94928" height="5.94928" rx="2.97464" fill="black"/>
<rect x="1607.78" y="233.848" width="5.94928" height="5.94928" rx="2.97464" fill="black"/>
<rect x="1802.95" y="233.848" width="5.94928" height="5.94928" rx="2.97464" fill="black"/>
<rect x="1802.95" y="493.949" width="5.94928" height="5.94928" rx="2.97464" fill="black"/>
<rect x="1802.95" y="883.949" width="5.94928" height="5.94928" rx="2.97464" fill="black"/>
<rect x="1412.93" y="233.848" width="5.94928" height="5.94928" rx="2.97464" fill="black"/>
<rect x="1477.88" y="233.848" width="5.94928" height="5.94928" rx="2.97464" fill="black"/>
<rect x="1542.83" y="233.848" width="5.94928" height="5.94928" rx="2.97464" fill="black"/>
<rect x="1738" y="233.848" width="5.94928" height="5.94928" rx="2.97464" fill="black"/>
<rect x="1738" y="493.949" width="5.94928" height="5.94928" rx="2.97464" fill="black"/>
<rect x="1738" y="883.949" width="5.94928" height="5.94928" rx="2.97464" fill="black"/>
<rect x="1673" y="233.848" width="5.94928" height="5.94928" rx="2.97464" fill="black"/>
<rect x="1868.17" y="233.848" width="5.94928" height="5.94928" rx="2.97464" fill="black"/>
<rect x="1673" y="493.949" width="5.94928" height="5.94928" rx="2.97464" fill="black"/>
<rect x="1673" y="883.949" width="5.94928" height="5.94928" rx="2.97464" fill="black"/>
<rect x="1868.17" y="493.949" width="5.94928" height="5.94928" rx="2.97464" fill="black"/>
<rect x="1868.17" y="883.949" width="5.94928" height="5.94928" rx="2.97464" fill="black"/>
<rect x="49" y="299" width="5.94928" height="5.94928" rx="2.97464" fill="black"/>
<rect x="49" y="689" width="5.94928" height="5.94928" rx="2.97464" fill="black"/>
<rect x="49" y="559.102" width="5.94928" height="5.94928" rx="2.97464" fill="black"/>
<rect x="49" y="949.102" width="5.94928" height="5.94928" rx="2.97464" fill="black"/>
<rect x="113.949" y="299" width="5.94928" height="5.94928" rx="2.97464" fill="black"/>
<rect x="113.949" y="689" width="5.94928" height="5.94928" rx="2.97464" fill="black"/>
<rect x="113.949" y="559.102" width="5.94928" height="5.94928" rx="2.97464" fill="black"/>
<rect x="113.949" y="949.102" width="5.94928" height="5.94928" rx="2.97464" fill="black"/>
<rect x="178.898" y="299" width="5.94928" height="5.94928" rx="2.97464" fill="black"/>
<rect x="178.898" y="689" width="5.94928" height="5.94928" rx="2.97464" fill="black"/>
<rect x="178.898" y="559.102" width="5.94928" height="5.94928" rx="2.97464" fill="black"/>
<rect x="178.898" y="949.102" width="5.94928" height="5.94928" rx="2.97464" fill="black"/>
<rect x="243.848" y="299" width="5.94928" height="5.94928" rx="2.97464" fill="black"/>
<rect x="243.848" y="689" width="5.94928" height="5.94928" rx="2.97464" fill="black"/>
<rect x="243.848" y="559.102" width="5.94928" height="5.94928" rx="2.97464" fill="black"/>
<rect x="243.848" y="949.102" width="5.94928" height="5.94928" rx="2.97464" fill="black"/>
<rect x="1802.95" y="299" width="5.94928" height="5.94928" rx="2.97464" fill="black"/>
<rect x="1802.95" y="689" width="5.94928" height="5.94928" rx="2.97464" fill="black"/>
<rect x="1802.95" y="559.102" width="5.94928" height="5.94928" rx="2.97464" fill="black"/>
<rect x="1802.95" y="949.102" width="5.94928" height="5.94928" rx="2.97464" fill="black"/>
<rect x="1738" y="299" width="5.94928" height="5.94928" rx="2.97464" fill="black"/>
<rect x="1738" y="689" width="5.94928" height="5.94928" rx="2.97464" fill="black"/>
<rect x="1738" y="559.102" width="5.94928" height="5.94928" rx="2.97464" fill="black"/>
<rect x="1738" y="949.102" width="5.94928" height="5.94928" rx="2.97464" fill="black"/>
<rect x="1673" y="299" width="5.94928" height="5.94928" rx="2.97464" fill="black"/>
<rect x="1673" y="689" width="5.94928" height="5.94928" rx="2.97464" fill="black"/>
<rect x="1868.17" y="299" width="5.94928" height="5.94928" rx="2.97464" fill="black"/>
<rect x="1868.17" y="689" width="5.94928" height="5.94928" rx="2.97464" fill="black"/>
<rect x="1673" y="559.102" width="5.94928" height="5.94928" rx="2.97464" fill="black"/>
<rect x="1673" y="949.102" width="5.94928" height="5.94928" rx="2.97464" fill="black"/>
<rect x="1868.17" y="559.102" width="5.94928" height="5.94928" rx="2.97464" fill="black"/>
<rect x="1868.17" y="949.102" width="5.94928" height="5.94928" rx="2.97464" fill="black"/>
<rect x="49" y="363.949" width="5.94928" height="5.94928" rx="2.97464" fill="black"/>
<rect x="49" y="753.949" width="5.94928" height="5.94928" rx="2.97464" fill="black"/>
<rect x="49" y="624.051" width="5.94928" height="5.94928" rx="2.97464" fill="black"/>
<rect x="49" y="1014.05" width="5.94928" height="5.94928" rx="2.97464" fill="black"/>
<rect x="113.949" y="363.949" width="5.94928" height="5.94928" rx="2.97464" fill="black"/>
<rect x="113.949" y="753.949" width="5.94928" height="5.94928" rx="2.97464" fill="black"/>
<rect x="113.949" y="624.051" width="5.94928" height="5.94928" rx="2.97464" fill="black"/>
<rect x="113.949" y="1014.05" width="5.94928" height="5.94928" rx="2.97464" fill="black"/>
<rect x="178.898" y="363.949" width="5.94928" height="5.94928" rx="2.97464" fill="black"/>
<rect x="178.898" y="753.949" width="5.94928" height="5.94928" rx="2.97464" fill="black"/>
<rect x="178.898" y="624.051" width="5.94928" height="5.94928" rx="2.97464" fill="black"/>
<rect x="178.898" y="1014.05" width="5.94928" height="5.94928" rx="2.97464" fill="black"/>
<rect x="243.848" y="363.949" width="5.94928" height="5.94928" rx="2.97464" fill="black"/>
<rect x="243.848" y="753.949" width="5.94928" height="5.94928" rx="2.97464" fill="black"/>
<rect x="243.848" y="624.051" width="5.94928" height="5.94928" rx="2.97464" fill="black"/>
<rect x="243.848" y="1014.05" width="5.94928" height="5.94928" rx="2.97464" fill="black"/>
<rect x="1802.95" y="363.949" width="5.94928" height="5.94928" rx="2.97464" fill="black"/>
<rect x="1802.95" y="753.949" width="5.94928" height="5.94928" rx="2.97464" fill="black"/>
<rect x="1802.95" y="624.051" width="5.94928" height="5.94928" rx="2.97464" fill="black"/>
<rect x="1802.95" y="1014.05" width="5.94928" height="5.94928" rx="2.97464" fill="black"/>
<rect x="1738" y="363.949" width="5.94928" height="5.94928" rx="2.97464" fill="black"/>
<rect x="1738" y="753.949" width="5.94928" height="5.94928" rx="2.97464" fill="black"/>
<rect x="1738" y="624.051" width="5.94928" height="5.94928" rx="2.97464" fill="black"/>
<rect x="1738" y="1014.05" width="5.94928" height="5.94928" rx="2.97464" fill="black"/>
<rect x="1673" y="363.949" width="5.94928" height="5.94928" rx="2.97464" fill="black"/>
<rect x="1673" y="753.949" width="5.94928" height="5.94928" rx="2.97464" fill="black"/>
<rect x="1868.17" y="363.949" width="5.94928" height="5.94928" rx="2.97464" fill="black"/>
<rect x="1868.17" y="753.949" width="5.94928" height="5.94928" rx="2.97464" fill="black"/>
<rect x="1673" y="624.051" width="5.94928" height="5.94928" rx="2.97464" fill="black"/>
<rect x="1673" y="1014.05" width="5.94928" height="5.94928" rx="2.97464" fill="black"/>
<rect x="1868.17" y="624.051" width="5.94928" height="5.94928" rx="2.97464" fill="black"/>
<rect x="1868.17" y="1014.05" width="5.94928" height="5.94928" rx="2.97464" fill="black"/>
</svg>
